P3
# Created by GIMP version 2.10.32 PNM plug-in
20 20
255
255
255
255
255
255
255
255
255
255
255
255
255
255
255
255
254
254
254
250
250
250
249
249
249
249
249
249
248
248
248
247
247
247
247
247
247
250
250
250
254
254
254
255
255
255
255
255
255
255
255
255
255
255
255
255
255
255
255
255
255
255
255
255
255
255
255
255
255
255
255
255
255
251
251
251
232
232
232
197
197
197
178
178
178
172
172
172
168
168
168
161
161
161
166
166
166
194
194
194
229
229
229
250
250
250
255
255
255
255
255
255
255
255
255
255
255
255
255
255
255
255
255
255
255
255
255
255
255
255
251
251
251
221
221
221
144
144
144
72
72
72
47
47
47
42
42
42
41
41
41
40
40
40
42
42
42
57
57
57
110
110
110
199
199
199
247
247
247
255
255
255
255
255
255
255
255
255
255
255
255
255
255
255
255
255
255
252
252
252
223
223
223
134
134
134
53
53
53
37
37
37
36
36
36
36
36
36
36
36
36
36
36
36
36
36
36
36
36
36
38
38
38
81
81
81
200
200
200
251
251
251
255
255
255
255
255
255
255
255
255
255
255
255
254
254
254
241
241
241
162
162
162
56
56
56
38
38
38
36
36
36
36
36
36
36
36
36
36
36
36
36
36
36
36
36
36
36
36
36
37
37
37
37
37
37
105
105
105
233
233
233
254
254
254
255
255
255
255
255
255
255
255
255
252
252
252
220
220
220
110
110
110
40
40
40
36
36
36
36
36
36
36
36
36
40
40
40
64
64
64
88
88
88
71
71
71
42
42
42
37
37
37
36
36
36
58
58
58
214
214
214
254
254
254
255
255
255
255
255
255
255
255
255
250
250
250
195
195
195
74
74
74
37
37
37
36
36
36
36
36
36
50
50
50
144
144
144
213
213
213
232
232
232
213
213
213
130
130
130
42
42
42
36
36
36
70
70
70
223
223
223
254
254
254
255
255
255
255
255
255
255
255
255
247
247
247
175
175
175
51
51
51
37
37
37
36
36
36
37
37
37
113
113
113
230
230
230
253
253
253
255
255
255
252
252
252
222
222
222
113
113
113
43
43
43
134
134
134
241
241
241
255
255
255
255
255
255
255
255
255
255
255
255
247
247
247
166
166
166
44
44
44
36
36
36
36
36
36
37
37
37
124
124
124
240
240
240
255
255
255
255
255
255
255
255
255
251
251
251
218
218
218
171
171
171
221
221
221
252
252
252
255
255
255
255
255
255
255
255
255
255
255
255
252
252
252
205
205
205
60
60
60
36
36
36
36
36
36
37
37
37
104
104
104
235
235
235
255
255
255
255
255
255
255
255
255
255
255
255
252
252
252
248
248
248
252
252
252
255
255
255
255
255
255
255
255
255
255
255
255
255
255
255
255
255
255
228
228
228
79
79
79
36
36
36
36
36
36
37
37
37
92
92
92
217
217
217
244
244
244
250
250
250
253
253
253
254
254
254
255
255
255
255
255
255
255
255
255
255
255
255
255
255
255
255
255
255
255
255
255
255
255
255
255
255
255
242
242
242
132
132
132
37
37
37
36
36
36
36
36
36
49
49
49
121
121
121
155
155
155
193
193
193
217
217
217
238
238
238
251
251
251
254
254
254
254
254
254
255
255
255
255
255
255
255
255
255
255
255
255
255
255
255
255
255
255
252
252
252
201
201
201
55
55
55
36
36
36
36
36
36
37
37
37
40
40
40
42
42
42
57
57
57
77
77
77
125
125
125
198
198
198
227
227
227
246
246
246
254
254
254
255
255
255
255
255
255
255
255
255
255
255
255
255
255
255
255
255
255
242
242
242
134
134
134
38
38
38
36
36
36
36
36
36
37
37
37
36
36
36
36
36
36
37
37
37
37
37
37
66
66
66
114
114
114
204
204
204
250
250
250
255
255
255
255
255
255
255
255
255
255
255
255
255
255
255
255
255
255
254
254
254
220
220
220
97
97
97
37
37
37
36
36
36
36
36
36
36
36
36
36
36
36
36
36
36
36
36
36
37
37
37
47
47
47
160
160
160
245
245
245
255
255
255
255
255
255
255
255
255
255
255
255
255
255
255
255
255
255
255
255
255
251
251
251
210
210
210
98
98
98
39
39
39
36
36
36
37
37
37
37
37
37
37
37
37
37
37
37
46
46
46
112
112
112
213
213
213
251
251
251
255
255
255
255
255
255
255
255
255
255
255
255
255
255
255
255
255
255
255
255
255
255
255
255
251
251
251
221
221
221
144
144
144
85
85
85
85
85
85
90
90
90
91
91
91
105
105
105
163
163
163
224
224
224
250
250
250
255
255
255
255
255
255
255
255
255
255
255
255
255
255
255
255
255
255
255
255
255
255
255
255
255
255
255
255
255
255
254
254
254
244
244
244
228
228
228
219
219
219
218
218
218
221
221
221
232
232
232
246
246
246
254
254
254
255
255
255
255
255
255
255
255
255
255
255
255
255
255
255
255
255
255
255
255
255
255
255
255
255
255
255
255
255
255
255
255
255
255
255
255
255
255
255
254
254
254
253
253
253
253
253
253
253
253
253
254
254
254
255
255
255
255
255
255
255
255
255
255
255
255
255
255
255
255
255
255
255
255
255
255
255
255
255
255
255
255
255
255
255
255
255
255
255
255
255
255
255
255
255
255
255
255
255
255
255
255
255
255
255
255
255
255
255
255
255
255
255
255
255
255
255
255
255
255
255
255
255
255
255
255
255
255
255
255
255
255
255
255
255
